<?xml version="1.0" encoding="UTF-8"?> <svg xmlns="http://www.w3.org/2000/svg" xmlns:xlink="http://www.w3.org/1999/xlink" id="Group_70" data-name="Group 70" width="1000" height="563" viewBox="0 0 1000 563"><defs><radialGradient id="radial-gradient" cx="0.5" cy="0.5" r="0.5" gradientUnits="objectBoundingBox"><stop offset="0" stop-color="#0e3e76"></stop><stop offset="1" stop-color="#01082c"></stop></radialGradient></defs><rect id="Rectangle_2" data-name="Rectangle 2" width="1000" height="563" fill="url(#radial-gradient)"></rect><text id="Inbound_Documents_Received" data-name="Inbound Documents Received" transform="translate(90 377)" fill="#fff" font-size="16" font-family="OpenSans, Open Sans"><tspan x="-31" y="0">Inbound</tspan><tspan x="-42" y="22">Documents</tspan><tspan x="-33" y="44">Received</tspan></text><text id="Prepare_Documents" data-name="Prepare Documents" transform="translate(248 377)" fill="#fff" font-size="16" font-family="OpenSans, Open Sans"><tspan x="-29" y="0">Prepare</tspan><tspan x="-42" y="22">Documents</tspan></text><text id="Extract_Data" data-name="Extract Data" transform="translate(564 377)" fill="#fff" font-size="16" font-family="OpenSans, Open Sans"><tspan x="-45" y="0">Extract Data</tspan></text><text id="Human_in_the_Loop" data-name="Human in the Loop" transform="translate(563 166)" fill="#fff" font-size="16" font-family="OpenSans, Open Sans"><tspan x="-71" y="0">Human in the Loop</tspan></text><text id="Validate_Verify_Enrich" data-name="Validate, Verify &amp; Enrich" transform="translate(722 377)" fill="#fff" font-size="16" font-family="OpenSans, Open Sans"><tspan x="-63" y="0">Validate, Verify &amp;</tspan><tspan x="-23" y="22">Enrich</tspan></text><text id="Deliver_to_End_System" data-name="Deliver to End System" transform="translate(889 240)" fill="#fff" font-size="16" font-family="OpenSans, Open Sans"><tspan x="-52" y="0">Deliver to End</tspan><tspan x="-26" y="22">System</tspan></text><text id="Internal_External_Systems" data-name="Internal &amp; External Systems" transform="translate(722 489)" fill="#fff" font-size="16" font-family="OpenSans, Open Sans"><tspan x="-69" y="0">Internal &amp; External</tspan><tspan x="-30" y="22">Systems</tspan></text><text id="Action_Triggered" data-name="Action Triggered" transform="translate(892 479)" fill="#fff" font-size="16" font-family="OpenSans, Open Sans"><tspan x="-61" y="0">Action Triggered</tspan></text><text id="Understand_Meaning_Intent_Document_Type" data-name="Understand Meaning, Intent &amp; Document Type" transform="translate(406 377)" fill="#fff" font-size="16" font-family="OpenSans, Open Sans"><tspan x="-44" y="0">Understand</tspan><tspan x="-34" y="22">Meaning,</tspan><tspan x="-30" y="44">Intent &amp;</tspan><tspan x="-58" y="66">Document Type</tspan></text><g id="Rectangle_3" data-name="Rectangle 3" transform="translate(202 256)" fill="#061d49" stroke="#0759be" stroke-width="1"><rect width="92" height="92" rx="4" stroke="none"></rect><rect x="0.5" y="0.5" width="91" height="91" rx="3.5" fill="none"></rect></g><g id="Rectangle_5" data-name="Rectangle 5" transform="translate(360 256)" fill="#061d49" stroke="#0759be" stroke-width="1"><rect width="92" height="92" rx="4" stroke="none"></rect><rect x="0.5" y="0.5" width="91" height="91" rx="3.5" fill="none"></rect></g><g id="Rectangle_10" data-name="Rectangle 10" transform="translate(517 45)" fill="#061d49" stroke="#0759be" stroke-width="1"><rect width="92" height="92" rx="4" stroke="none"></rect><rect x="0.5" y="0.5" width="91" height="91" rx="3.5" fill="none"></rect></g><g id="Rectangle_6" data-name="Rectangle 6" transform="translate(518 256)" fill="#061d49" stroke="#0759be" stroke-width="1"><rect width="92" height="92" rx="4" stroke="none"></rect><rect x="0.5" y="0.5" width="91" height="91" rx="3.5" fill="none"></rect></g><g id="Rectangle_7" data-name="Rectangle 7" transform="translate(676 256)" fill="#061d49" stroke="#0759be" stroke-width="1"><rect width="92" height="92" rx="4" stroke="none"></rect><rect x="0.5" y="0.5" width="91" height="91" rx="3.5" fill="none"></rect></g><g id="Rectangle_8" data-name="Rectangle 8" transform="translate(843 119)" fill="#061d49" stroke="#0759be" stroke-width="1"><rect width="92" height="92" rx="4" stroke="none"></rect><rect x="0.5" y="0.5" width="91" height="91" rx="3.5" fill="none"></rect></g><g id="Rectangle_9" data-name="Rectangle 9" transform="translate(843 358)" fill="#061d49" stroke="#0759be" stroke-width="1"><rect width="92" height="92" rx="4" stroke="none"></rect><rect x="0.5" y="0.5" width="91" height="91" rx="3.5" fill="none"></rect></g><g id="Rectangle_4" data-name="Rectangle 4" transform="translate(44 256)" fill="#061d49" stroke="#0759be" stroke-width="1"><rect width="92" height="92" rx="4" stroke="none"></rect><rect x="0.5" y="0.5" width="91" height="91" rx="3.5" fill="none"></rect></g><path id="Path_1" data-name="Path 1" d="M388,262l46-75.312H658L701.576,262" transform="translate(18 -6)" fill="none" stroke="#fff" stroke-width="2" stroke-dasharray="4 4"></path><g id="Group_1" data-name="Group 1" transform="translate(18 -6)"><path id="Path_2" data-name="Path 2" d="M118,308h59.081" transform="translate(0 0.5)" fill="none" stroke="#fff" stroke-width="2"></path><path id="Polygon_1" data-name="Polygon 1" d="M5.5,0,11,9H0Z" transform="translate(184 303) rotate(90)" fill="#fff"></path></g><g id="Group_2" data-name="Group 2" transform="translate(176 -6)"><path id="Path_2-2" data-name="Path 2" d="M118,308h59.081" transform="translate(0 0.5)" fill="none" stroke="#fff" stroke-width="2"></path><path id="Polygon_1-2" data-name="Polygon 1" d="M5.5,0,11,9H0Z" transform="translate(184 303) rotate(90)" fill="#fff"></path></g><g id="Group_3" data-name="Group 3" transform="translate(334 -6)"><path id="Path_2-3" data-name="Path 2" d="M118,308h59.081" transform="translate(0 0.5)" fill="none" stroke="#fff" stroke-width="2"></path><path id="Polygon_1-3" data-name="Polygon 1" d="M5.5,0,11,9H0Z" transform="translate(184 303) rotate(90)" fill="#fff"></path></g><g id="Group_4" data-name="Group 4" transform="translate(492 -6)"><path id="Path_2-4" data-name="Path 2" d="M118,308h59.081" transform="translate(0 0.5)" fill="none" stroke="#fff" stroke-width="2"></path><path id="Polygon_1-4" data-name="Polygon 1" d="M5.5,0,11,9H0Z" transform="translate(184 303) rotate(90)" fill="#fff"></path></g><g id="Group_5" data-name="Group 5" transform="translate(470.308 158.407) rotate(-45)"><path id="Path_2-5" data-name="Path 2" d="M118,308h59.081" transform="translate(0 0.5)" fill="none" stroke="#fff" stroke-width="2"></path><path id="Polygon_1-5" data-name="Polygon 1" d="M5.5,0,11,9H0Z" transform="translate(184 303) rotate(90)" fill="#fff"></path></g><g id="Group_6" data-name="Group 6" transform="translate(775.778 307.553) rotate(45)"><path id="Path_2-6" data-name="Path 2" d="M0,0H59.081" transform="translate(0 5.5)" fill="none" stroke="#fff" stroke-width="2"></path><path id="Polygon_1-6" data-name="Polygon 1" d="M5.5,0,11,9H0Z" transform="translate(66 0) rotate(90)" fill="#fff"></path></g><path id="Path_3" data-name="Path 3" d="M722,404v55.359" transform="translate(0 9)" fill="none" stroke="#fff" stroke-width="2" stroke-dasharray="6 6"></path><g id="Group_7" data-name="Group 7" transform="translate(43 31)"><g id="Rectangle_11" data-name="Rectangle 11" transform="translate(542 440)" fill="#05163e" stroke="#fff" stroke-width="0.5"><rect width="22" height="15" stroke="none"></rect><rect x="0.25" y="0.25" width="21.5" height="14.5" fill="none"></rect></g><g id="Rectangle_13" data-name="Rectangle 13" transform="translate(542 455)" fill="#05163e" stroke="#fff" stroke-width="0.5"><rect width="22" height="15" stroke="none"></rect><rect x="0.25" y="0.25" width="21.5" height="14.5" fill="none"></rect></g><g id="Rectangle_15" data-name="Rectangle 15" transform="translate(542 470)" fill="#05163e" stroke="#fff" stroke-width="0.5"><rect width="22" height="15" stroke="none"></rect><rect x="0.25" y="0.25" width="21.5" height="14.5" fill="none"></rect></g><g id="Rectangle_12" data-name="Rectangle 12" transform="translate(564 440)" fill="#05163e" stroke="#fff" stroke-width="0.5"><rect width="22" height="15" stroke="none"></rect><rect x="0.25" y="0.25" width="21.5" height="14.5" fill="none"></rect></g><g id="Rectangle_14" data-name="Rectangle 14" transform="translate(564 455)" fill="#05163e" stroke="#fff" stroke-width="0.5"><rect width="22" height="15" stroke="none"></rect><rect x="0.25" y="0.25" width="21.5" height="14.5" fill="none"></rect></g><g id="Rectangle_16" data-name="Rectangle 16" transform="translate(564 470)" fill="#05163e" stroke="#fff" stroke-width="0.5"><rect width="22" height="15" stroke="none"></rect><rect x="0.25" y="0.25" width="21.5" height="14.5" fill="none"></rect></g></g><g id="Group_11" data-name="Group 11" transform="translate(117.57 -332.149)"><path id="Path_14" data-name="Path 14" d="M149.451,74.151H171.46q2.228-1.312,3.934-9.17c1.583-7.295,3.147-6.893,5.4-12.712a20.631,20.631,0,0,0,.041-14.6h-.549l-6.957,6.665.022-16.717a22.117,22.117,0,0,0-31.753,6.47q-4.781,9.613-1.472,18.177c2.248,5.82,3.812,5.418,5.4,12.712q1.707,7.858,3.936,9.17Zm13.024-34.774a9.6,9.6,0,0,1,3.227,1.338l2.774-2,2.086,2.086-2,2.773A9.616,9.616,0,0,1,169.9,46.8l3.377.546v2.95l-3.377.546a9.588,9.588,0,0,1-1.338,3.227l2,2.773-2.086,2.086-2.774-2a9.612,9.612,0,0,1-3.227,1.338l-.546,3.377h-2.95l-.546-3.377a9.587,9.587,0,0,1-3.227-1.338l-2.774,2-2.086-2.086,2-2.773a9.594,9.594,0,0,1-1.338-3.227l-3.377-.546v-2.95l3.377-.546a9.587,9.587,0,0,1,1.338-3.227l-2-2.773,2.086-2.086,2.774,2a9.591,9.591,0,0,1,3.227-1.338L158.981,36h2.95ZM173.7,74.864a2.58,2.58,0,0,1-1.777,4.453H148.734a2.58,2.58,0,0,1-1.633-4.579,5.181,5.181,0,0,0,1.323,1.161l.476.28h23.113l.476-.28a5.075,5.075,0,0,0,1.213-1.035Zm.523,5.864a2.564,2.564,0,0,1,.283,1.173,2.591,2.591,0,0,1-2.583,2.583H148.734a2.591,2.591,0,0,1-2.583-2.583,2.564,2.564,0,0,1,.283-1.173,4.574,4.574,0,0,0,2.3.617h23.191a4.587,4.587,0,0,0,2.3-.617Zm-5.451,5.783a2.582,2.582,0,0,1-2.522,3.138H154.407a2.591,2.591,0,0,1-2.583-2.583,2.563,2.563,0,0,1,.061-.555Zm7.514-66.385h18.084a.906.906,0,0,1,.9.9V34.738a.906.906,0,0,1-.9.9H179.466l-4.108,3.936.025-18.551a.906.906,0,0,1,.9-.9ZM179.64,31.3a1.014,1.014,0,0,1,0-2.027H191a1.014,1.014,0,1,1,0,2.027Zm0-4.453a1.014,1.014,0,0,1,0-2.027H191a1.014,1.014,0,1,1,0,2.027ZM160.455,42.621a6.2,6.2,0,1,1-6.2,6.2A6.2,6.2,0,0,1,160.455,42.621Z" transform="translate(125.663 579.761)" fill="#fff" fill-rule="evenodd"></path></g><g id="Group_64" data-name="Group 64" transform="translate(58.818 272.034)"><path id="Path_39" data-name="Path 39" d="M148.87,46.562v-3.5H118.451V56.3a1.2,1.2,0,0,1-1.2,1.2h-9.722V95.719h41.344ZM141.539,89.6H113.9a1.2,1.2,0,1,1,0-2.4h27.64a1.2,1.2,0,1,1,0,2.4Zm0-6.827H113.9a1.2,1.2,0,1,1,0-2.4h27.64a1.2,1.2,0,1,1,0,2.4Zm0-6.827H113.9a1.2,1.2,0,0,1,0-2.406h27.64a1.2,1.2,0,0,1,0,2.406Zm0-6.827H113.9a1.2,1.2,0,1,1,0-2.405h27.64a1.2,1.2,0,1,1,0,2.405Zm1.2-9.109a1.2,1.2,0,0,1-1.2,1.2H131.68a1.2,1.2,0,0,1-1.2-1.2V50.142a1.2,1.2,0,0,1,1.2-1.2h9.859a1.2,1.2,0,0,1,1.2,1.2Z" transform="translate(-107.526 -43.062)" fill="#fff"></path><path id="Path_40" data-name="Path 40" d="M304.64,107.46H312.1v7.461H304.64Z" transform="translate(-279.292 -99.179)" fill="#fff"></path><path id="Path_41" data-name="Path 41" d="M124.29,61.543,116.98,71.2h7.31Z" transform="translate(-115.764 -59.166)" fill="#fff"></path><path id="Path_42" data-name="Path 42" d="M333.29,82.488v48.79a1.209,1.209,0,0,1-1.044,1.2H316.4l21.712,5.876,13.791-50.821Z" transform="translate(-289.542 -77.418)" fill="#fff"></path></g><g id="Group_63" data-name="Group 63" transform="translate(220.882 267.35)"><path id="Path_15" data-name="Path 15" d="M213.23,210.912H217.9V170.538l2.862-3.616H213.23Z" transform="translate(-205.245 -148.091)" fill="#fff"></path><path id="Path_16" data-name="Path 16" d="M277.85,136.741h7.231v-8.588l-3.766,4.219Z" transform="translate(-260.825 -114.745)" fill="#fff"></path><path id="Path_17" data-name="Path 17" d="M220.77,91.511H228V82.923l-3.615,4.219Z" transform="translate(-211.73 -75.843)" fill="#fff"></path><path id="Path_18" data-name="Path 18" d="M171.518,35.623h23.05V32.309H165.04l-4.218,4.821-4.671,5.725V88.8h4.671V48.278l5.424-6.779Z" transform="translate(-156.151 -32.309)" fill="#fff"></path><path id="Path_19" data-name="Path 19" d="M280.828,123.85v12.2h-11.6v44.291h38.417V123.85Zm22.749,29.075H273.6v-3.164h29.98Zm0-7.231H273.6V142.53h29.98Zm0-7.231H283.541V135.3h20.037Z" transform="translate(-253.41 -111.044)" fill="#fff"></path><path id="Path_20" data-name="Path 20" d="M321.9,78.617H295.08v7.532l3.766-4.218H321.9Z" transform="translate(-275.645 -72.139)" fill="#fff"></path></g><g id="noun-extract-3027151" transform="translate(378.501 231)"><path id="Path_43" data-name="Path 43" d="M298.88,67.644a2.457,2.457,0,0,0-3.488,0l-3.168,3.193V37.457a2.456,2.456,0,1,0-4.913,0v33.38l-3.168-3.193a2.467,2.467,0,0,0-3.488,3.488l7.369,7.369a2.457,2.457,0,0,0,3.488,0l7.369-7.369a2.457,2.457,0,0,0,0-3.488Z" transform="translate(-105.248)" fill="#fff"></path><path id="Path_44" data-name="Path 44" d="M206.625,140H191.887v12.281a7.616,7.616,0,0,1,5.208,2.456,6.656,6.656,0,0,1,2.161,4.913,7.37,7.37,0,0,1-2.161,5.208l-7.369,7.369a7.37,7.37,0,0,1-10.415,0l-7.369-7.369a7.369,7.369,0,0,1,5.208-12.577V140H162.412a4.912,4.912,0,0,0-4.913,4.913v44.213a4.912,4.912,0,0,0,4.913,4.913h44.213a4.912,4.912,0,0,0,4.913-4.913V144.913A4.912,4.912,0,0,0,206.625,140Z" transform="translate(0 -90.262)" fill="#fff"></path></g><g id="Group_65" data-name="Group 65" transform="translate(-377.656 -76.226)"><path id="Path_45" data-name="Path 45" d="M117.408,14a33.408,33.408,0,1,0,33.408,33.408A33.438,33.438,0,0,0,117.408,14Zm16.176,25.882-19.2,21.17a1.423,1.423,0,0,1-1.969.07L100.457,49.1a1.279,1.279,0,0,1,0-1.9l3.517-3.517a1.279,1.279,0,0,1,1.9,0l7.314,7.385,14.77-16.317a1.337,1.337,0,0,1,1.9-.07l3.657,3.306a1.337,1.337,0,0,1,.07,1.9Z" transform="translate(982.656 331.226)" fill="#fff"></path></g><g id="Group_66" data-name="Group 66" transform="translate(-214.736 -142.034)"><path id="Path_46" data-name="Path 46" d="M127.87,72.292h8.145V89.786H127.87Zm48.993,1.8a14.7,14.7,0,1,1-10.4,4.307,14.7,14.7,0,0,1,10.4-4.307Zm0,15.772a2.668,2.668,0,1,1-2.669,2.669,1.073,1.073,0,0,0-2.144,0,4.816,4.816,0,0,0,3.741,4.694v1.164a1.073,1.073,0,1,0,2.147,0V97.227a4.817,4.817,0,0,0-1.074-9.509,2.666,2.666,0,1,1,2.669-2.667,1.073,1.073,0,1,0,2.146,0,4.817,4.817,0,0,0-3.741-4.695V79.192a1.073,1.073,0,1,0-2.147,0v1.164a4.817,4.817,0,0,0,1.072,9.508Zm-14.6-36.085,10.7-15.136a3.731,3.731,0,1,1,1.786,1.183L164.058,54.947a3.734,3.734,0,1,1-6.465,1.459l-8.24-5.314h0a3.729,3.729,0,0,1-4.746.677l-9.246,7.784a3.738,3.738,0,1,1-1.391-1.623l9.217-7.758a3.737,3.737,0,1,1,7.124-1.579,3.829,3.829,0,0,1-.04.543l8.439,5.444h0a3.747,3.747,0,0,1,3.55-.8Zm9.5-3.678V72.731a16.99,16.99,0,0,1,8.145-.507V50.1ZM157.133,72.976V89.783h2.913c-.02-.329-.029-.659-.029-.991h0a16.79,16.79,0,0,1,5.262-12.231V72.976ZM142.5,62.015V89.783h8.145V62.015Z" transform="translate(943.866 239.511)" fill="#fff" fill-rule="evenodd"></path></g><g id="noun-activate-3451738" transform="translate(707.525 292.527)"><path id="Path_47" data-name="Path 47" d="M246.508,122.479a19,19,0,0,0-3.456,37.689V150.131h6.912v10.034a19,19,0,0,0-3.456-37.687Zm5.144,12.1h0a1.725,1.725,0,0,1,1.252,2.963l-6.9,6.9a1.726,1.726,0,0,1-2.44,0l-3.453-3.449h0a1.727,1.727,0,0,1,2.444-2.44l2.231,2.231,5.68-5.68a1.724,1.724,0,0,1,1.185-.523Z" transform="translate(-70.217 -42.115)" fill="#fff"></path><path id="Path_48" data-name="Path 48" d="M372.684,332.5a5.211,5.211,0,0,0-5.184,5.184h3.456a1.728,1.728,0,0,1,3.456,0v5.184h3.456v-5.184A5.211,5.211,0,0,0,372.684,332.5Z" transform="translate(-182.569 -210.659)" fill="#fff"></path><path id="Path_49" data-name="Path 49" d="M337.684,315a5.211,5.211,0,0,0-5.184,5.184h3.456a1.728,1.728,0,0,1,3.456,0v8.64h3.456v-8.64A5.211,5.211,0,0,0,337.684,315Z" transform="translate(-154.481 -196.615)" fill="#fff"></path><path id="Path_50" data-name="Path 50" d="M267.684,350a5.21,5.21,0,0,0-5.184,5.184v12.96a9.522,9.522,0,0,0,9.5,9.5h.864v-3.456H272a6,6,0,0,1-6.048-6.048v-12.96a1.728,1.728,0,0,1,3.456,0h3.456A5.211,5.211,0,0,0,267.684,350Z" transform="translate(-98.305 -224.703)" fill="#fff"></path><path id="Path_51" data-name="Path 51" d="M407.684,350a5.2,5.2,0,0,0-5.167,5.184h3.456a1.711,1.711,0,1,1,3.422,0l.017,12.96a5.981,5.981,0,0,1-6.014,6.048h-.9v3.456h.9a9.505,9.505,0,0,0,9.47-9.5l-.017-12.957A5.2,5.2,0,0,0,407.684,350Z" transform="translate(-210.657 -224.703)" fill="#fff"></path><path id="Path_52" data-name="Path 52" d="M302.684,245a5.211,5.211,0,0,0-5.184,5.184v29.376h3.456V250.184a1.728,1.728,0,1,1,3.456,0v22.464h3.456V250.184A5.211,5.211,0,0,0,302.684,245Z" transform="translate(-126.393 -140.439)" fill="#fff"></path><path id="Path_53" data-name="Path 53" d="M491.7,87.366a1.728,1.728,0,0,0-1.7,1.755v6.862a1.728,1.728,0,1,0,3.456,0V89.121a1.728,1.728,0,0,0-1.755-1.755Z" transform="translate(-280.873 -13.937)" fill="#fff"></path><path id="Path_54" data-name="Path 54" d="M474.254,104.869a1.728,1.728,0,1,0,0,3.456h6.865a1.728,1.728,0,1,0,0-3.456Z" transform="translate(-266.835 -27.983)" fill="#fff"></path><path id="Path_55" data-name="Path 55" d="M159.2,140.179a1.729,1.729,0,0,0-1.7,1.755V148.8a1.728,1.728,0,1,0,3.456,0v-6.861a1.729,1.729,0,0,0-1.755-1.755Z" transform="translate(-14.038 -56.319)" fill="#fff"></path><path id="Path_56" data-name="Path 56" d="M141.754,157.679a1.728,1.728,0,1,0,0,3.456h6.865a1.728,1.728,0,1,0,0-3.456Z" transform="translate(0 -70.364)" fill="#fff"></path><path id="Path_57" data-name="Path 57" d="M458.456,176.728A1.728,1.728,0,1,1,456.728,175,1.728,1.728,0,0,1,458.456,176.728Z" transform="translate(-252.789 -84.264)" fill="#fff"></path><path id="Path_58" data-name="Path 58" d="M545.956,71.728a1.729,1.729,0,1,1-.506-1.221A1.728,1.728,0,0,1,545.956,71.728Z" transform="translate(-323.008)" fill="#fff"></path><path id="Path_59" data-name="Path 59" d="M423.456,71.728a1.729,1.729,0,1,1-.506-1.221A1.728,1.728,0,0,1,423.456,71.728Z" transform="translate(-224.701)" fill="#fff"></path><path id="Path_60" data-name="Path 60" d="M213.456,89.228a1.728,1.728,0,1,1-.506-1.222A1.728,1.728,0,0,1,213.456,89.228Z" transform="translate(-56.174 -14.044)" fill="#fff"></path><path id="Path_61" data-name="Path 61" d="M195.956,246.728a1.728,1.728,0,1,1-.506-1.222A1.728,1.728,0,0,1,195.956,246.728Z" transform="translate(-42.13 -140.439)" fill="#fff"></path><path id="Path_62" data-name="Path 62" d="M528.456,281.728a1.728,1.728,0,1,1-.506-1.222A1.728,1.728,0,0,1,528.456,281.728Z" transform="translate(-308.965 -168.527)" fill="#fff"></path></g><g id="Group_67" data-name="Group 67" transform="translate(-518.047 -233.5)"><path id="Path_63" data-name="Path 63" d="M151.848,156.643a12.162,12.162,0,1,1-12.162-12.162A12.144,12.144,0,0,1,151.848,156.643ZM159,192.293c-2.692-11.976-10.305-20.61-19.311-20.61s-16.618,8.634-19.311,20.61Zm-43.82-44.749a10.77,10.77,0,1,0,10.77,10.77A10.777,10.777,0,0,0,115.176,147.545Zm49.019,0a10.77,10.77,0,1,0,10.862,10.862A10.777,10.777,0,0,0,164.2,147.545ZM125.2,176.232a14.444,14.444,0,0,0-10.027-4.456c-7.984,0-14.761,7.613-17.175,18.289H118.24a32.46,32.46,0,0,1,6.964-13.833Zm35.836,13.833h20.332c-2.414-10.584-9.191-18.289-17.175-18.289a13.951,13.951,0,0,0-10.119,4.642,31.164,31.164,0,0,1,6.963,13.647Z" transform="translate(941.046 158.019)" fill="#fff"></path></g><text id="LeewayHertz" transform="translate(879 532)" fill="#fff" font-size="16" font-family="Georgia" opacity="0.3"><tspan x="0" y="0">LeewayHertz</tspan></text></svg> 